<svg xmlns="http://www.w3.org/2000/svg" xmlns:xlink="http://www.w3.org/1999/xlink" width="1080" height="1350" viewBox="0 0 1080 1350"><defs><clipPath id="b"><rect width="1080" height="1350"/></clipPath></defs><g id="a" clip-path="url(#b)"><rect width="1080" height="1350" fill="#dee8ef"/><text transform="translate(81 1222)" fill="#7c6dec" font-size="32" font-family="SegoeUI-Bold, Segoe UI" font-weight="700"><tspan x="0" y="0">@reboot13_dev</tspan></text><text transform="translate(81 129)" font-size="32" font-family="SegoeUI-Bold, Segoe UI" font-weight="700"><tspan x="0" y="0">&lt;/reboot13&gt;</tspan></text><text transform="translate(77 264)" fill="#0a0909" font-size="82" font-family="SegoeUI-Bold, Segoe UI" font-weight="700"><tspan x="0" y="0">Color</tspan></text><text transform="translate(81 349)" fill="#0a0909" font-size="23" font-family="SegoeUI-Semibold, Segoe UI" font-weight="600"><tspan x="0" y="0">The first UI Design Fundamental that shapes a user&apos;s experience is color.</tspan></text><g transform="translate(-3.5 -47)"><g transform="translate(491 -30)"><g transform="translate(81 518)" fill="#6d00cd"><path d="M 433.5 578.5 L 0.5 578.5 L 0.5 0.5 L 433.5 0.5 L 433.5 578.5 Z" stroke="none"/><path d="M 1 1 L 1 578 L 433 578 L 433 1 L 1 1 M 0 0 L 434 0 L 434 579 L 0 579 L 0 0 Z" stroke="none" fill="#707070"/></g><g transform="translate(81 518)" fill="rgba(186,0,255,0.96)" stroke="#f06aff" stroke-width="1"><rect width="434" height="78" stroke="none"/><rect x="0.5" y="0.5" width="433" height="77" fill="none"/></g><path d="M0,0H434V223H0Z" transform="translate(81 874)" fill="#2a0a81"/><text transform="translate(117 676)" fill="#fff" font-size="51" font-family="SegoeUI-Bold, Segoe UI" font-weight="700"><tspan x="0" y="0">Lets Design </tspan><tspan x="0" y="73">Together</tspan></text><g transform="translate(117 785)" fill="#e6ff00"><path d="M 216.5 47.13835906982422 L 22.5 47.13835906982422 C 19.53341102600098 47.13835906982422 16.6555290222168 46.52327346801758 13.94632339477539 45.31018447875977 C 11.32729434967041 44.13747787475586 8.974588394165039 42.45806503295898 6.953558921813965 40.31853485107422 C 4.930646896362305 38.17700576782227 3.342235326766968 35.68280029296875 2.232470512390137 32.90518188476563 C 1.082882404327393 30.02788925170898 0.5 26.97091865539551 0.5 23.81918334960938 C 0.5 20.66744804382324 1.082882404327393 17.61047744750977 2.232470512390137 14.73318290710449 C 3.342235326766968 11.95556545257568 4.930646896362305 9.461359977722168 6.953558921813965 7.319830417633057 C 8.974588394165039 5.180301189422607 11.32729434967041 3.500889301300049 13.94632339477539 2.32818341255188 C 16.6555290222168 1.115095138549805 19.53341102600098 0.5000068545341492 22.5 0.5000068545341492 L 216.5 0.5000068545341492 C 219.4665832519531 0.5000068545341492 222.3444671630859 1.115095138549805 225.0536804199219 2.32818341255188 C 227.6726989746094 3.500889301300049 230.0254058837891 5.180301189422607 232.0464477539063 7.319830417633057 C 234.0693511962891 9.461359977722168 235.6577606201172 11.95556545257568 236.7675323486328 14.73318290710449 C 237.9171142578125 17.61047744750977 238.5 20.66744804382324 238.5 23.81918334960938 C 238.5 26.97091865539551 237.9171142578125 30.02788925170898 236.7675323486328 32.90518188476563 C 235.6577606201172 35.68280029296875 234.0693511962891 38.17700576782227 232.0464477539063 40.31853485107422 C 230.0254058837891 42.45806503295898 227.6726989746094 44.13747787475586 225.0536804199219 45.31018447875977 C 222.3444671630859 46.52327346801758 219.4665832519531 47.13835906982422 216.5 47.13835906982422 Z" stroke="none"/><path d="M 22.5 0.9999961853027344 C 19.60427856445313 0.9999961853027344 16.79515075683594 1.60040283203125 14.15065002441406 2.784496307373047 C 11.59187316894531 3.930244445800781 9.292724609375 5.571651458740234 7.317062377929688 7.663150787353516 C 5.337554931640625 9.758712768554688 3.783096313476563 12.19981002807617 2.69677734375 14.91871643066406 C 1.570877075195313 17.73671531677246 1 20.73127746582031 1 23.81918334960938 C 1 26.90708923339844 1.570877075195313 29.90165138244629 2.69677734375 32.71965026855469 C 3.783096313476563 35.43856048583984 5.337554931640625 37.87965393066406 7.317062377929688 39.97521591186523 C 9.292724609375 42.06671524047852 11.59187316894531 43.70812225341797 14.15065002441406 44.8538703918457 C 16.79515075683594 46.0379638671875 19.60427856445313 46.63837051391602 22.5 46.63837051391602 L 216.5 46.63837051391602 C 219.3957214355469 46.63837051391602 222.2048492431641 46.0379638671875 224.8493499755859 44.8538703918457 C 227.4081268310547 43.70812225341797 229.707275390625 42.06671524047852 231.6829376220703 39.97521591186523 C 233.6624450683594 37.87965393066406 235.2169036865234 35.43856048583984 236.30322265625 32.71965026855469 C 237.4291229248047 29.90165138244629 238 26.90708923339844 238 23.81918334960938 C 238 20.73127746582031 237.4291229248047 17.73671531677246 236.30322265625 14.91871643066406 C 235.2169036865234 12.19981002807617 233.6624450683594 9.758712768554688 231.6829376220703 7.663150787353516 C 229.707275390625 5.571651458740234 227.4081268310547 3.930244445800781 224.8493499755859 2.784496307373047 C 222.2048492431641 1.60040283203125 219.3957214355469 0.9999961853027344 216.5 0.9999961853027344 L 22.5 0.9999961853027344 M 22.5 -3.814697265625e-06 L 216.5 -3.814697265625e-06 C 228.9264068603516 -3.814697265625e-06 239 10.66421508789063 239 23.81918334960938 C 239 36.97415161132813 228.9264068603516 47.63837051391602 216.5 47.63837051391602 L 22.5 47.63837051391602 C 10.07359313964844 47.63837051391602 0 36.97415161132813 0 23.81918334960938 C 0 10.66421508789063 10.07359313964844 -3.814697265625e-06 22.5 -3.814697265625e-06 Z" stroke="none" fill="#707070"/></g><text transform="translate(161 817)" font-size="21" font-family="SegoeUI-Bold, Segoe UI" font-weight="700"><tspan x="0" y="0">Start designing</tspan></text></g><g transform="translate(0 -30)"><g transform="translate(81 518)" fill="#b20c84"><path d="M 433.5 578.5 L 0.5 578.5 L 0.5 0.5 L 433.5 0.5 L 433.5 578.5 Z" stroke="none"/><path d="M 1 1 L 1 578 L 433 578 L 433 1 L 1 1 M 0 0 L 434 0 L 434 579 L 0 579 L 0 0 Z" stroke="none" fill="#707070"/></g><g transform="translate(81 518)" fill="#af46d6" stroke="#f06aff" stroke-width="1"><rect width="434" height="78" stroke="none"/><rect x="0.5" y="0.5" width="433" height="77" fill="none"/></g><path d="M0,0H434V223H0Z" transform="translate(81 874)" fill="#6e0a81"/><text transform="translate(117 676)" fill="#92c1ff" font-size="51" font-family="SegoeUI-Bold, Segoe UI" font-weight="700"><tspan x="0" y="0">Lets Design </tspan><tspan x="0" y="73">Together</tspan></text><g transform="translate(117 785)" fill="#23ad7b" stroke="#707070" stroke-width="1"><rect width="239" height="45" rx="22.5" stroke="none"/><rect x="0.5" y="0.5" width="238" height="44" rx="22" fill="none"/></g><text transform="translate(161 814)" fill="#1e4c89" font-size="21" font-family="SegoeUI-Bold, Segoe UI" font-weight="700"><tspan x="0" y="0">Start designing</tspan></text></g><path d="M52.115,42.1h0L36.946,26.928,52.114,11.76h0a1.566,1.566,0,0,0,0-2.209L44.949,2.384a1.567,1.567,0,0,0-2.209,0h0L27.571,17.553,12.4,2.385h0a1.566,1.566,0,0,0-2.209,0L3.027,9.55a1.566,1.566,0,0,0,0,2.209h0L18.2,26.928,3.027,42.1h0a1.566,1.566,0,0,0,0,2.209l7.165,7.165a1.566,1.566,0,0,0,2.209,0h0L27.571,36.3,42.739,51.472h0a1.566,1.566,0,0,0,2.209,0l7.165-7.165a1.566,1.566,0,0,0,0-2.209Z" transform="translate(270.429 1110.648)" fill="red"/><path d="M21.208,53.6.914,31.8a3.53,3.53,0,0,1,0-4.741L5.33,22.322a2.973,2.973,0,0,1,4.415,0L23.416,37,52.7,5.559a2.973,2.973,0,0,1,4.415,0L61.528,10.3a3.53,3.53,0,0,1,0,4.741L25.623,53.6A2.973,2.973,0,0,1,21.208,53.6Z" transform="translate(757.779 1107.999)" fill="#00cf1c"/></g></g></svg>