<svg xmlns="http://www.w3.org/2000/svg" xmlns:xlink="http://www.w3.org/1999/xlink" width="1080" height="1350" viewBox="0 0 1080 1350"><defs><clipPath id="b"><rect width="1080" height="1350"/></clipPath></defs><g id="a" clip-path="url(#b)"><rect width="1080" height="1350" fill="#dee8ef"/><text transform="translate(81 1222)" fill="#7c6dec" font-size="32" font-family="SegoeUI-Bold, Segoe UI" font-weight="700"><tspan x="0" y="0">@reboot13_dev</tspan></text><text transform="translate(81 129)" font-size="32" font-family="SegoeUI-Bold, Segoe UI" font-weight="700"><tspan x="0" y="0">&lt;/reboot13&gt;</tspan></text><text transform="translate(81 264)" fill="#0a0909" font-size="82" font-family="SegoeUI-Bold, Segoe UI" font-weight="700"><tspan x="0" y="0">Contrast</tspan></text><text transform="translate(81 349)" fill="#0a0909" font-size="23" font-family="SegoeUI-Semibold, Segoe UI" font-weight="600"><tspan x="0" y="0">Contrast in the context of visual design can be defined as a difference between two </tspan><tspan x="0" y="33">or more elements in a composition.</tspan></text><g transform="translate(-32 -26)"><g transform="translate(35 27)"><g transform="translate(81 518)" fill="#a3d4ff"><path d="M 433.5 357.2489013671875 L 0.5 357.2489013671875 L 0.5 0.5000062584877014 L 433.5 0.5000062584877014 L 433.5 357.2489013671875 Z" stroke="none"/><path d="M 1 1 L 1 356.7489013671875 L 433 356.7489013671875 L 433 1 L 1 1 M 0 0 L 434 0 L 434 357.7489013671875 L 0 357.7489013671875 L 0 0 Z" stroke="none" fill="#707070"/></g><g transform="translate(81 798)" fill="rgba(255,255,255,0.96)" stroke="#f06aff" stroke-width="1"><rect width="434" height="78" stroke="none"/><rect x="0.5" y="0.5" width="433" height="77" fill="none"/></g><text transform="translate(117 615)" fill="#7c92a5" font-size="51" font-family="SegoeUI-Bold, Segoe UI" font-weight="700"><tspan x="0" y="0">Get Started</tspan></text><text transform="translate(122 647)" fill="#b1b1b1" font-size="18" font-family="SegoeUI-Bold, Segoe UI" font-weight="700"><tspan x="0" y="0">Learn UI designing</tspan></text></g><g transform="translate(513 27)"><g transform="translate(81 518)" fill="#a3d4ff"><path d="M 433.5 357.2489013671875 L 0.5 357.2489013671875 L 0.5 0.5000062584877014 L 433.5 0.5000062584877014 L 433.5 357.2489013671875 Z" stroke="none"/><path d="M 1 1 L 1 356.7489013671875 L 433 356.7489013671875 L 433 1 L 1 1 M 0 0 L 434 0 L 434 357.7489013671875 L 0 357.7489013671875 L 0 0 Z" stroke="none" fill="#707070"/></g><g transform="translate(81 798)" fill="rgba(255,255,255,0.96)" stroke="#f06aff" stroke-width="1"><rect width="434" height="78" stroke="none"/><rect x="0.5" y="0.5" width="433" height="77" fill="none"/></g><text transform="translate(117 615)" fill="#1d2f76" font-size="51" font-family="SegoeUI-Bold, Segoe UI" font-weight="700"><tspan x="0" y="0">Get Started</tspan></text><text transform="translate(117 643)" fill="#3c3838" font-size="18" font-family="SegoeUI-Bold, Segoe UI" font-weight="700"><tspan x="0" y="0">Learn UI designing</tspan></text></g><path d="M52.115,42.1h0L36.946,26.928,52.114,11.76h0a1.566,1.566,0,0,0,0-2.209L44.949,2.384a1.567,1.567,0,0,0-2.209,0h0L27.571,17.553,12.4,2.385h0a1.566,1.566,0,0,0-2.209,0L3.027,9.55a1.566,1.566,0,0,0,0,2.209h0L18.2,26.928,3.027,42.1h0a1.566,1.566,0,0,0,0,2.209l7.165,7.165a1.566,1.566,0,0,0,2.209,0h0L27.571,36.3,42.739,51.472h0a1.566,1.566,0,0,0,2.209,0l7.165-7.165a1.566,1.566,0,0,0,0-2.209Z" transform="translate(289.429 1002.648)" fill="red"/><path d="M21.208,53.6.914,31.8a3.53,3.53,0,0,1,0-4.741L5.33,22.322a2.973,2.973,0,0,1,4.415,0L23.416,37,52.7,5.559a2.973,2.973,0,0,1,4.415,0L61.528,10.3a3.53,3.53,0,0,1,0,4.741L25.623,53.6A2.973,2.973,0,0,1,21.208,53.6Z" transform="translate(779.779 999.999)" fill="#00cf1c"/><g transform="translate(-1 11)"><g transform="translate(142 719)" fill="#cfcfcf" stroke="#707070" stroke-width="1"><rect width="151" height="56" rx="28" stroke="none"/><rect x="0.5" y="0.5" width="150" height="55" rx="27.5" fill="none"/></g><text transform="translate(177 752)" fill="#818181" font-size="23" font-family="SegoeUI-Bold, Segoe UI" font-weight="700"><tspan x="0" y="0">Explore</tspan></text></g><g transform="translate(479 11)"><g transform="translate(142 719)" fill="#000cb8" stroke="#707070" stroke-width="1"><rect width="151" height="56" rx="28" stroke="none"/><rect x="0.5" y="0.5" width="150" height="55" rx="27.5" fill="none"/></g><text transform="translate(177 752)" fill="#fff" font-size="23" font-family="SegoeUI-Bold, Segoe UI" font-weight="700"><tspan x="0" y="0">Explore</tspan></text></g></g></g></svg>