<svg xmlns="http://www.w3.org/2000/svg" xmlns:xlink="http://www.w3.org/1999/xlink" width="1080" height="1350" viewBox="0 0 1080 1350"><defs><clipPath id="b"><rect width="1080" height="1350"/></clipPath></defs><g id="a" clip-path="url(#b)"><rect width="1080" height="1350" fill="#dee8ef"/><path d="M0,0H443V286H0Z" transform="translate(576 503)" fill="#ce2eff"/><text transform="translate(595 558)" fill="#fff" font-size="32" font-family="SegoeUI-Bold, Segoe UI" font-weight="700"><tspan x="0" y="0">Join the mail listing</tspan></text><text transform="translate(81 1222)" fill="#7c6dec" font-size="32" font-family="SegoeUI-Bold, Segoe UI" font-weight="700"><tspan x="0" y="0">@reboot13_dev</tspan></text><text transform="translate(81 129)" font-size="32" font-family="SegoeUI-Bold, Segoe UI" font-weight="700"><tspan x="0" y="0">&lt;/reboot13&gt;</tspan></text><text transform="translate(81 264)" fill="#0a0909" font-size="82" font-family="SegoeUI-Bold, Segoe UI" font-weight="700"><tspan x="0" y="0">Visual Hierarchy</tspan></text><text transform="translate(81 349)" fill="#0a0909" font-size="23" font-family="SegoeUI-Semibold, Segoe UI" font-weight="600"><tspan x="0" y="0">Every element have different level of importance. Using Visual Hierarchy we can</tspan><tspan x="0" y="33">differentiate he importance of the element.</tspan></text><path d="M52.115,42.1h0L36.946,26.928,52.114,11.76h0a1.566,1.566,0,0,0,0-2.209L44.949,2.384a1.567,1.567,0,0,0-2.209,0h0L27.571,17.553,12.4,2.385h0a1.566,1.566,0,0,0-2.209,0L3.027,9.55a1.566,1.566,0,0,0,0,2.209h0L18.2,26.928,3.027,42.1h0a1.566,1.566,0,0,0,0,2.209l7.165,7.165a1.566,1.566,0,0,0,2.209,0h0L27.571,36.3,42.739,51.472h0a1.566,1.566,0,0,0,2.209,0l7.165-7.165a1.566,1.566,0,0,0,0-2.209Z" transform="translate(251.429 961.072)" fill="red"/><path d="M0,0H406V163H0Z" transform="translate(595 578)" fill="rgba(255,255,255,0.34)"/><path d="M21.208,53.6.914,31.8a3.53,3.53,0,0,1,0-4.741L5.33,22.322a2.973,2.973,0,0,1,4.415,0L23.416,37,52.7,5.559a2.973,2.973,0,0,1,4.415,0L61.528,10.3a3.53,3.53,0,0,1,0,4.741L25.623,53.6A2.973,2.973,0,0,1,21.208,53.6Z" transform="translate(766.279 954.423)" fill="#00cf1c"/><rect width="443" height="286" transform="translate(78 503)" fill="#ce2eff"/><text transform="translate(116 584)" fill="#fff" font-size="32" font-family="SegoeUI-Bold, Segoe UI" font-weight="700"><tspan x="0" y="0">Join the mail listing</tspan></text><rect width="266" height="29" transform="translate(116 646)" fill="#fff"/><rect width="88" height="29" transform="translate(403 646)" fill="#fff"/><text transform="translate(116 636)" font-size="16" font-family="SegoeUI-Semibold, Segoe UI" font-weight="600"><tspan x="0" y="0">Email Address</tspan></text><text transform="translate(421 667)" font-size="16" font-family="SegoeUI-Semibold, Segoe UI" font-weight="600"><tspan x="0" y="0">Submit</tspan></text><rect width="266" height="29" transform="translate(614 646)" fill="#fff"/><text transform="translate(614 636)" fill="#fff" font-size="16" font-family="SegoeUI-Semibold, Segoe UI" font-weight="600"><tspan x="0" y="0">Email Address</tspan></text><g transform="translate(-7)"><rect width="88" height="29" transform="translate(901 646)" fill="#7d70ff"/><text transform="translate(919 667)" fill="#fff" font-size="16" font-family="SegoeUI-Semibold, Segoe UI" font-weight="600"><tspan x="0" y="0">Submit</tspan></text></g></g></svg>